<svg xmlns="http://www.w3.org/2000/svg" viewBox="0 0 128 128">
  <defs>
    <linearGradient id="vs-body" x1="0" y1="0" x2="0" y2="1">
      <stop offset="0" stop-color="#64748b"/>
      <stop offset="1" stop-color="#334155"/>
    </linearGradient>
    <linearGradient id="vs-panel" x1="0" y1="0" x2="1" y2="0">
      <stop offset="0" stop-color="#1B9BDB"/>
      <stop offset="1" stop-color="#3ED6FF"/>
    </linearGradient>
  </defs>
  <ellipse cx="64" cy="18" rx="28" ry="10" fill="#bae6fd" opacity="0.55"/>
  <path d="M36 18 Q64 4 92 18" fill="none" stroke="#3ED6FF" stroke-width="3" stroke-linecap="round"/>
  <path d="M42 14 Q64 6 86 14" fill="none" stroke="#1B9BDB" stroke-width="2" stroke-linecap="round" opacity="0.7"/>
  <rect x="22" y="108" width="84" height="10" rx="3" fill="#94a3b8"/>
  <rect x="26" y="34" width="76" height="34" rx="5" fill="url(#vs-body)"/>
  <rect x="26" y="34" width="76" height="10" rx="5" fill="#94a3b8"/>
  <rect x="34" y="52" width="44" height="3" rx="1" fill="#1e293b"/>
  <rect x="34" y="58" width="32" height="3" rx="1" fill="#1e293b"/>
  <circle cx="84" cy="55" r="4" fill="#22c55e"/>
  <circle cx="84" cy="55" r="2" fill="#bbf7d0"/>
  <rect x="26" y="72" width="76" height="34" rx="5" fill="url(#vs-body)"/>
  <rect x="26" y="72" width="76" height="10" rx="5" fill="#94a3b8"/>
  <rect x="34" y="90" width="44" height="3" rx="1" fill="#1e293b"/>
  <rect x="34" y="96" width="28" height="3" rx="1" fill="#1e293b"/>
  <circle cx="84" cy="93" r="4" fill="#3b82f6"/>
  <circle cx="84" cy="93" r="2" fill="#bfdbfe"/>
  <path d="M88 24 L88 38 C88 48 64 56 64 56 C64 56 40 48 40 38 L40 24 C40 18 52 12 64 12 C76 12 88 18 88 24Z" fill="#10b981"/>
  <path d="M88 24 L88 38 C88 48 64 56 64 56 L64 12 C76 12 88 18 88 24Z" fill="#34d399"/>
  <path d="M58 36 L64 30 L70 36 L67 36 L67 44 L61 44 L61 36 Z" fill="#fff"/>
  <rect x="61" y="44" width="6" height="5" rx="1" fill="#fff"/>
</svg>
